<svg xmlns="http://www.w3.org/2000/svg" xmlns:xlink="http://www.w3.org/1999/xlink" width="250" zoomAndPan="magnify" viewBox="0 0 187.5 37.5" height="50" preserveAspectRatio="xMidYMid meet" version="1.0"><defs><g/><clipPath id="9013de7d93"><path d="M 25 3.710938 L 64.808594 3.710938 L 64.808594 33.394531 L 25 33.394531 Z M 25 3.710938 " clip-rule="nonzero"/></clipPath><clipPath id="d3dc34f2cb"><path d="M 4.699219 3.710938 L 48 3.710938 L 48 33.394531 L 4.699219 33.394531 Z M 4.699219 3.710938 " clip-rule="nonzero"/></clipPath></defs><g clip-path="url(#9013de7d93)"><path fill="#b803a6" d="M 55.523438 3.714844 L 64.808594 3.714844 L 64.808594 33.382812 L 55.523438 33.382812 L 55.523438 16.644531 L 38.828125 33.382812 L 25.929688 33.382812 L 55.523438 3.714844 " fill-opacity="1" fill-rule="nonzero"/></g><g clip-path="url(#d3dc34f2cb)"><path fill="#7e0272" d="M 47.160156 3.714844 L 4.699219 33.382812 L 17.59375 33.382812 Z M 47.160156 3.714844 " fill-opacity="1" fill-rule="nonzero"/></g><g fill="#111111" fill-opacity="1"><g transform="translate(76.795096, 18.398753)"><g><path d="M 9.78125 -2.6875 L 3.9375 -2.6875 L 2.828125 0 L -0.15625 0 L 5.4375 -12.578125 L 8.3125 -12.578125 L 13.9375 0 L 10.890625 0 Z M 8.859375 -4.90625 L 6.859375 -9.71875 L 4.875 -4.90625 Z M 8.859375 -4.90625 "/></g></g></g><g fill="#111111" fill-opacity="1"><g transform="translate(94.111194, 18.398753)"><g><path d="M 9.5 0 L 7.078125 -3.5 L 4.40625 -3.5 L 4.40625 0 L 1.484375 0 L 1.484375 -12.578125 L 6.9375 -12.578125 C 8.050781 -12.578125 9.015625 -12.390625 9.828125 -12.015625 C 10.648438 -11.648438 11.28125 -11.125 11.71875 -10.4375 C 12.164062 -9.757812 12.390625 -8.953125 12.390625 -8.015625 C 12.390625 -7.078125 12.164062 -6.269531 11.71875 -5.59375 C 11.269531 -4.914062 10.632812 -4.398438 9.8125 -4.046875 L 12.625 0 Z M 9.453125 -8.015625 C 9.453125 -8.722656 9.222656 -9.265625 8.765625 -9.640625 C 8.304688 -10.015625 7.644531 -10.203125 6.78125 -10.203125 L 4.40625 -10.203125 L 4.40625 -5.828125 L 6.78125 -5.828125 C 7.644531 -5.828125 8.304688 -6.015625 8.765625 -6.390625 C 9.222656 -6.773438 9.453125 -7.316406 9.453125 -8.015625 Z M 9.453125 -8.015625 "/></g></g></g><g fill="#111111" fill-opacity="1"><g transform="translate(110.870529, 18.398753)"><g><path d="M 6.078125 -4.9375 L 4.390625 -3.1875 L 4.390625 0 L 1.484375 0 L 1.484375 -12.578125 L 4.390625 -12.578125 L 4.390625 -6.703125 L 9.953125 -12.578125 L 13.1875 -12.578125 L 7.984375 -6.96875 L 13.5 0 L 10.09375 0 Z M 6.078125 -4.9375 "/></g></g></g><g fill="#111111" fill-opacity="1"><g transform="translate(127.719656, 18.398753)"><g><path d="M 9.78125 -2.6875 L 3.9375 -2.6875 L 2.828125 0 L -0.15625 0 L 5.4375 -12.578125 L 8.3125 -12.578125 L 13.9375 0 L 10.890625 0 Z M 8.859375 -4.90625 L 6.859375 -9.71875 L 4.875 -4.90625 Z M 8.859375 -4.90625 "/></g></g></g><g fill="#111111" fill-opacity="1"><g transform="translate(145.035757, 18.398753)"><g><path d="M 13.03125 -12.578125 L 13.03125 0 L 10.640625 0 L 4.359375 -7.640625 L 4.359375 0 L 1.484375 0 L 1.484375 -12.578125 L 3.90625 -12.578125 L 10.15625 -4.9375 L 10.15625 -12.578125 Z M 13.03125 -12.578125 "/></g></g></g><g fill="#111111" fill-opacity="1"><g transform="translate(163.106196, 18.398753)"><g><path d="M 11.234375 -2.328125 L 11.234375 0 L 1.484375 0 L 1.484375 -12.578125 L 11 -12.578125 L 11 -10.234375 L 4.390625 -10.234375 L 4.390625 -7.515625 L 10.21875 -7.515625 L 10.21875 -5.25 L 4.390625 -5.25 L 4.390625 -2.328125 Z M 11.234375 -2.328125 "/></g></g></g><g fill="#111111" fill-opacity="1"><g transform="translate(83.963482, 30.972545)"><g><path d="M 1.296875 -8.6875 L 4.96875 -8.6875 C 5.882812 -8.6875 6.695312 -8.503906 7.40625 -8.140625 C 8.113281 -7.773438 8.664062 -7.265625 9.0625 -6.609375 C 9.457031 -5.953125 9.65625 -5.195312 9.65625 -4.34375 C 9.65625 -3.488281 9.457031 -2.734375 9.0625 -2.078125 C 8.664062 -1.421875 8.113281 -0.910156 7.40625 -0.546875 C 6.695312 -0.179688 5.882812 0 4.96875 0 L 1.296875 0 Z M 4.890625 -1.078125 C 5.585938 -1.078125 6.203125 -1.210938 6.734375 -1.484375 C 7.273438 -1.753906 7.6875 -2.132812 7.96875 -2.625 C 8.257812 -3.125 8.40625 -3.695312 8.40625 -4.34375 C 8.40625 -4.988281 8.257812 -5.554688 7.96875 -6.046875 C 7.6875 -6.535156 7.273438 -6.914062 6.734375 -7.1875 C 6.203125 -7.46875 5.585938 -7.609375 4.890625 -7.609375 L 2.546875 -7.609375 L 2.546875 -1.078125 Z M 4.890625 -1.078125 "/></g></g></g><g fill="#111111" fill-opacity="1"><g transform="translate(99.676993, 30.972545)"><g><path d="M 1.296875 -8.6875 L 2.546875 -8.6875 L 2.546875 0 L 1.296875 0 Z M 1.296875 -8.6875 "/></g></g></g><g fill="#111111" fill-opacity="1"><g transform="translate(108.98812, 30.972545)"><g><path d="M 7.3125 -4.390625 L 8.515625 -4.390625 L 8.515625 -1 C 8.078125 -0.644531 7.570312 -0.375 7 -0.1875 C 6.4375 0 5.84375 0.09375 5.21875 0.09375 C 4.34375 0.09375 3.550781 -0.09375 2.84375 -0.46875 C 2.144531 -0.851562 1.59375 -1.382812 1.1875 -2.0625 C 0.789062 -2.738281 0.59375 -3.5 0.59375 -4.34375 C 0.59375 -5.1875 0.789062 -5.945312 1.1875 -6.625 C 1.59375 -7.300781 2.148438 -7.828125 2.859375 -8.203125 C 3.566406 -8.585938 4.363281 -8.78125 5.25 -8.78125 C 5.945312 -8.78125 6.578125 -8.664062 7.140625 -8.4375 C 7.703125 -8.207031 8.179688 -7.875 8.578125 -7.4375 L 7.8125 -6.671875 C 7.125 -7.335938 6.285156 -7.671875 5.296875 -7.671875 C 4.640625 -7.671875 4.046875 -7.53125 3.515625 -7.25 C 2.992188 -6.96875 2.582031 -6.570312 2.28125 -6.0625 C 1.988281 -5.550781 1.84375 -4.976562 1.84375 -4.34375 C 1.84375 -3.71875 1.988281 -3.148438 2.28125 -2.640625 C 2.582031 -2.128906 2.992188 -1.726562 3.515625 -1.4375 C 4.046875 -1.144531 4.632812 -1 5.28125 -1 C 6.0625 -1 6.738281 -1.1875 7.3125 -1.5625 Z M 7.3125 -4.390625 "/></g></g></g><g fill="#111111" fill-opacity="1"><g transform="translate(124.031607, 30.972545)"><g><path d="M 1.296875 -8.6875 L 2.546875 -8.6875 L 2.546875 0 L 1.296875 0 Z M 1.296875 -8.6875 "/></g></g></g><g fill="#111111" fill-opacity="1"><g transform="translate(133.342734, 30.972545)"><g><path d="M 3.03125 -7.609375 L 0.046875 -7.609375 L 0.046875 -8.6875 L 7.234375 -8.6875 L 7.234375 -7.609375 L 4.25 -7.609375 L 4.25 0 L 3.03125 0 Z M 3.03125 -7.609375 "/></g></g></g><g fill="#111111" fill-opacity="1"><g transform="translate(146.090795, 30.972545)"><g><path d="M 6.828125 -2.171875 L 2.21875 -2.171875 L 1.265625 0 L -0.015625 0 L 3.921875 -8.6875 L 5.15625 -8.6875 L 9.09375 0 L 7.796875 0 Z M 6.40625 -3.15625 L 4.53125 -7.421875 L 2.65625 -3.15625 Z M 6.40625 -3.15625 "/></g></g></g><g fill="#111111" fill-opacity="1"><g transform="translate(160.637973, 30.972545)"><g><path d="M 1.296875 -8.6875 L 2.546875 -8.6875 L 2.546875 -1.078125 L 7.25 -1.078125 L 7.25 0 L 1.296875 0 Z M 1.296875 -8.6875 "/></g></g></g></svg>