<svg xmlns="http://www.w3.org/2000/svg" xmlns:xlink="http://www.w3.org/1999/xlink" width="500" zoomAndPan="magnify" viewBox="0 0 375 374.999991" height="500" preserveAspectRatio="xMidYMid meet" version="1.0"><defs><g/><clipPath id="19bb892b5f"><path d="M 140 44.46875 L 347.085938 44.46875 L 347.085938 201.96875 L 140 201.96875 Z M 140 44.46875 " clip-rule="nonzero"/></clipPath><clipPath id="bdb09d9794"><path d="M 27.585938 44.46875 L 254 44.46875 L 254 201.96875 L 27.585938 201.96875 Z M 27.585938 44.46875 " clip-rule="nonzero"/></clipPath></defs><g clip-path="url(#19bb892b5f)"><path fill="#b803a6" d="M 297.734375 44.480469 L 347.082031 44.480469 L 347.082031 201.914062 L 297.734375 201.914062 L 297.734375 113.09375 L 208.992188 201.914062 L 140.445312 201.914062 L 297.734375 44.480469 " fill-opacity="1" fill-rule="nonzero"/></g><g clip-path="url(#bdb09d9794)"><path fill="#7e0272" d="M 253.292969 44.480469 L 27.589844 201.914062 L 96.140625 201.914062 Z M 253.292969 44.480469 " fill-opacity="1" fill-rule="nonzero"/></g><g fill="#f4f6fc" fill-opacity="1"><g transform="translate(23.913157, 268.9304)"><g><path d="M 32.515625 -8.96875 L 13.09375 -8.96875 L 9.390625 0 L -0.53125 0 L 18.109375 -41.828125 L 27.671875 -41.828125 L 46.375 0 L 36.21875 0 Z M 29.46875 -16.3125 L 22.828125 -32.328125 L 16.203125 -16.3125 Z M 29.46875 -16.3125 "/></g></g></g><g fill="#f4f6fc" fill-opacity="1"><g transform="translate(81.503721, 268.9304)"><g><path d="M 31.609375 0 L 23.546875 -11.65625 L 14.640625 -11.65625 L 14.640625 0 L 4.953125 0 L 4.953125 -41.828125 L 23.0625 -41.828125 C 26.769531 -41.828125 29.988281 -41.207031 32.71875 -39.96875 C 35.445312 -38.738281 37.546875 -36.988281 39.015625 -34.71875 C 40.492188 -32.445312 41.234375 -29.757812 41.234375 -26.65625 C 41.234375 -23.550781 40.484375 -20.867188 38.984375 -18.609375 C 37.492188 -16.359375 35.375 -14.640625 32.625 -13.453125 L 42.015625 0 Z M 31.4375 -26.65625 C 31.4375 -29.007812 30.675781 -30.8125 29.15625 -32.0625 C 27.644531 -33.320312 25.4375 -33.953125 22.53125 -33.953125 L 14.640625 -33.953125 L 14.640625 -19.359375 L 22.53125 -19.359375 C 25.4375 -19.359375 27.644531 -19.992188 29.15625 -21.265625 C 30.675781 -22.546875 31.4375 -24.34375 31.4375 -26.65625 Z M 31.4375 -26.65625 "/></g></g></g><g fill="#f4f6fc" fill-opacity="1"><g transform="translate(137.242578, 268.9304)"><g><path d="M 20.203125 -16.4375 L 14.578125 -10.578125 L 14.578125 0 L 4.953125 0 L 4.953125 -41.828125 L 14.578125 -41.828125 L 14.578125 -22.296875 L 33.109375 -41.828125 L 43.875 -41.828125 L 26.53125 -23.1875 L 44.890625 0 L 33.59375 0 Z M 20.203125 -16.4375 "/></g></g></g><g fill="#f4f6fc" fill-opacity="1"><g transform="translate(193.280072, 268.9304)"><g><path d="M 32.515625 -8.96875 L 13.09375 -8.96875 L 9.390625 0 L -0.53125 0 L 18.109375 -41.828125 L 27.671875 -41.828125 L 46.375 0 L 36.21875 0 Z M 29.46875 -16.3125 L 22.828125 -32.328125 L 16.203125 -16.3125 Z M 29.46875 -16.3125 "/></g></g></g><g fill="#f4f6fc" fill-opacity="1"><g transform="translate(250.870644, 268.9304)"><g><path d="M 43.328125 -41.828125 L 43.328125 0 L 35.375 0 L 14.515625 -25.40625 L 14.515625 0 L 4.953125 0 L 4.953125 -41.828125 L 12.96875 -41.828125 L 33.765625 -16.4375 L 33.765625 -41.828125 Z M 43.328125 -41.828125 "/></g></g></g><g fill="#f4f6fc" fill-opacity="1"><g transform="translate(310.970024, 268.9304)"><g><path d="M 37.359375 -7.765625 L 37.359375 0 L 4.953125 0 L 4.953125 -41.828125 L 36.578125 -41.828125 L 36.578125 -34.0625 L 14.578125 -34.0625 L 14.578125 -24.984375 L 34 -24.984375 L 34 -17.453125 L 14.578125 -17.453125 L 14.578125 -7.765625 Z M 37.359375 -7.765625 "/></g></g></g><g fill="#f4f6fc" fill-opacity="1"><g transform="translate(47.754035, 325.808956)"><g><path d="M 4.328125 -28.890625 L 16.515625 -28.890625 C 19.566406 -28.890625 22.273438 -28.285156 24.640625 -27.078125 C 27.003906 -25.867188 28.835938 -24.171875 30.140625 -21.984375 C 31.453125 -19.796875 32.109375 -17.285156 32.109375 -14.453125 C 32.109375 -11.617188 31.453125 -9.101562 30.140625 -6.90625 C 28.835938 -4.71875 27.003906 -3.019531 24.640625 -1.8125 C 22.273438 -0.601562 19.566406 0 16.515625 0 L 4.328125 0 Z M 16.265625 -3.59375 C 18.609375 -3.59375 20.664062 -4.046875 22.4375 -4.953125 C 24.207031 -5.859375 25.570312 -7.128906 26.53125 -8.765625 C 27.5 -10.410156 27.984375 -12.304688 27.984375 -14.453125 C 27.984375 -16.597656 27.5 -18.488281 26.53125 -20.125 C 25.570312 -21.757812 24.207031 -23.03125 22.4375 -23.9375 C 20.664062 -24.851562 18.609375 -25.3125 16.265625 -25.3125 L 8.46875 -25.3125 L 8.46875 -3.59375 Z M 16.265625 -3.59375 "/></g></g></g><g fill="#f4f6fc" fill-opacity="1"><g transform="translate(100.014646, 325.808956)"><g><path d="M 4.328125 -28.890625 L 8.46875 -28.890625 L 8.46875 0 L 4.328125 0 Z M 4.328125 -28.890625 "/></g></g></g><g fill="#f4f6fc" fill-opacity="1"><g transform="translate(130.981957, 325.808956)"><g><path d="M 24.359375 -14.609375 L 28.3125 -14.609375 L 28.3125 -3.34375 C 26.882812 -2.15625 25.21875 -1.242188 23.3125 -0.609375 C 21.414062 0.015625 19.4375 0.328125 17.375 0.328125 C 14.457031 0.328125 11.828125 -0.3125 9.484375 -1.59375 C 7.148438 -2.875 5.316406 -4.632812 3.984375 -6.875 C 2.648438 -9.113281 1.984375 -11.640625 1.984375 -14.453125 C 1.984375 -17.253906 2.648438 -19.78125 3.984375 -22.03125 C 5.316406 -24.289062 7.160156 -26.054688 9.515625 -27.328125 C 11.867188 -28.597656 14.519531 -29.234375 17.46875 -29.234375 C 19.769531 -29.234375 21.863281 -28.851562 23.75 -28.09375 C 25.632812 -27.332031 27.238281 -26.222656 28.5625 -24.765625 L 26 -22.203125 C 23.695312 -24.429688 20.90625 -25.546875 17.625 -25.546875 C 15.425781 -25.546875 13.453125 -25.070312 11.703125 -24.125 C 9.953125 -23.175781 8.582031 -21.851562 7.59375 -20.15625 C 6.601562 -18.46875 6.109375 -16.566406 6.109375 -14.453125 C 6.109375 -12.359375 6.601562 -10.460938 7.59375 -8.765625 C 8.582031 -7.078125 9.953125 -5.75 11.703125 -4.78125 C 13.453125 -3.820312 15.410156 -3.34375 17.578125 -3.34375 C 20.171875 -3.34375 22.429688 -3.960938 24.359375 -5.203125 Z M 24.359375 -14.609375 "/></g></g></g><g fill="#f4f6fc" fill-opacity="1"><g transform="translate(181.014178, 325.808956)"><g><path d="M 4.328125 -28.890625 L 8.46875 -28.890625 L 8.46875 0 L 4.328125 0 Z M 4.328125 -28.890625 "/></g></g></g><g fill="#f4f6fc" fill-opacity="1"><g transform="translate(211.98149, 325.808956)"><g><path d="M 10.078125 -25.3125 L 0.171875 -25.3125 L 0.171875 -28.890625 L 24.0625 -28.890625 L 24.0625 -25.3125 L 14.15625 -25.3125 L 14.15625 0 L 10.078125 0 Z M 10.078125 -25.3125 "/></g></g></g><g fill="#f4f6fc" fill-opacity="1"><g transform="translate(254.379491, 325.808956)"><g><path d="M 22.75 -7.21875 L 7.390625 -7.21875 L 4.203125 0 L -0.046875 0 L 13.046875 -28.890625 L 17.125 -28.890625 L 30.265625 0 L 25.921875 0 Z M 21.296875 -10.53125 L 15.0625 -24.6875 L 8.828125 -10.53125 Z M 21.296875 -10.53125 "/></g></g></g><g fill="#f4f6fc" fill-opacity="1"><g transform="translate(302.761064, 325.808956)"><g><path d="M 4.328125 -28.890625 L 8.46875 -28.890625 L 8.46875 -3.59375 L 24.109375 -3.59375 L 24.109375 0 L 4.328125 0 Z M 4.328125 -28.890625 "/></g></g></g></svg>